<?xml version="1.0" encoding="UTF-8"?>
<!DOCTYPE svg PUBLIC "-//W3C//DTD SVG 1.1//EN" "http://www.w3.org/Graphics/SVG/1.1/DTD/svg11.dtd">
<!-- Creator: CorelDRAW 2019 (64-Bit) -->
<svg xmlns="http://www.w3.org/2000/svg" xml:space="preserve" width="49mm" height="49mm" version="1.1" style="shape-rendering:geometricPrecision; text-rendering:geometricPrecision; image-rendering:optimizeQuality; fill-rule:evenodd; clip-rule:evenodd"
viewBox="0 0 1347.47 1347.47"
 xmlns:xlink="http://www.w3.org/1999/xlink"
 xmlns:xodm="http://www.corel.com/coreldraw/odm/2003">
 <defs>
  <style type="text/css">
   <![CDATA[
    .fil0 {fill:none}
    .fil3 {fill:#BF360C}
    .fil2 {fill:#BF360C;fill-rule:nonzero}
    .fil1 {fill:#F9A825;fill-rule:nonzero}
   ]]>
  </style>
 </defs>
 <g id="Ebene_x0020_1">
  <metadata id="CorelCorpID_0Corel-Layer"/>
  <rect class="fil0" x="0" y="0" width="1347.47" height="1347.47"/>
  <g id="_2281625517616">
   <path class="fil1" d="M1272.14 422.63l-252.97 404.99c-21.01,10.36 -53.12,7.96 -82.19,-0.17 6.98,23.93 -1.88,62.98 -21.25,97.89l-102.09 170.37 -125.47 0 164.48 -268.26c25.45,-7.98 53.48,-9.51 84.32,0 -4.12,-34.73 5.68,-74.08 20.63,-95.02l190.08 -309.8 124.45 0z"/>
   <path class="fil2" d="M1019.17 827.62l167.5 268.08 -167.5 0 -103.44 -170.37c19.37,-34.91 28.23,-73.96 21.25,-97.89 29.08,8.13 61.18,10.53 82.19,0.17zm-166.51 -0.17l-142.28 -229.23 167.51 0 79.71 134.21c-14.95,20.94 -24.74,60.3 -20.63,95.02 -30.83,-9.51 -58.87,-7.98 -84.32,0z"/>
   <path class="fil3" d="M570.13 1110.89l-9.61 114.48 -430.22 0 0 -111.9c14.06,-10.61 37.15,-27.25 69.43,-49.91 78.76,-55.95 136.14,-102 172,-138.14 35.86,-36.3 53.8,-69.43 53.8,-99.71 0,-22.09 -7.17,-40.31 -21.52,-54.65 -14.34,-14.49 -33.71,-21.66 -57.8,-21.66 -56.38,0 -88.94,36.43 -97.98,109.31l-117.92 -26.54c26.69,-126.38 100.42,-189.5 221.49,-189.5 67.86,0 119.93,17.79 156.22,53.37 36.29,35.57 54.37,78.04 54.37,127.39 0,50.92 -18.93,96.53 -56.95,136.56 -37.87,40.02 -107.73,90.37 -209.44,150.91l274.13 0zm52.03 -512.68l-546.83 0 0 674.24 546.83 0 0 -674.24z"/>
   <path class="fil1" d="M75.33 513.1l0 -438.08 165.4 0c29.06,0 51.3,1.56 66.69,4.19 21.49,3.67 39.6,10.38 54.15,20.39 14.59,10.04 26.32,24.18 35.18,42.22 8.85,18.03 13.25,37.93 13.25,59.66 0,37.12 -11.89,68.6 -35.59,94.33 -23.7,25.74 -66.61,38.65 -128.59,38.65l-112.37 0 0 178.66 -58.13 0zm58.13 -230.05l113.19 0c37.53,0 64.08,-6.91 79.84,-20.9 15.72,-13.94 23.55,-33.55 23.55,-58.95 0,-18.25 -4.6,-33.97 -13.87,-47.01 -9.27,-13.04 -21.5,-21.83 -36.61,-25.9 -9.75,-2.63 -27.87,-3.87 -54.04,-3.87l-112.07 0 0 156.63zm322.73 230.05l0 -317.55 48.34 0 0 48.65c12.34,-22.54 23.79,-37.4 34.26,-44.57 10.51,-7.2 22.03,-10.81 34.57,-10.81 18.15,0 36.61,5.71 55.37,17.03l-19.18 49.66c-13.05,-7.34 -26.1,-11.01 -39.15,-11.01 -11.73,0 -22.23,3.57 -31.51,10.6 -9.28,7.04 -15.92,16.83 -19.88,29.36 -6.02,19.06 -8.97,40 -8.97,62.72l0 165.91 -53.84 0zm177.53 -158.77c0,-58.64 16.32,-102.08 49.05,-130.32 27.23,-23.45 60.57,-35.18 99.83,-35.18 43.55,0 79.24,14.27 106.97,42.83 27.64,28.45 41.51,67.91 41.51,118.18 0,40.79 -6.12,72.81 -18.36,96.16 -12.24,23.35 -30.08,41.5 -53.53,54.45 -23.35,12.95 -48.95,19.38 -76.58,19.38 -44.46,0 -80.36,-14.18 -107.78,-42.63 -27.43,-28.45 -41.1,-69.44 -41.1,-122.87zm55.06 0.1c0,40.59 8.87,70.97 26.62,91.06 17.84,20.19 40.18,30.29 67.2,30.29 26.72,0 48.95,-10.1 66.79,-30.38 17.74,-20.3 26.62,-51.19 26.62,-92.69 0,-39.16 -8.97,-68.84 -26.82,-88.92 -17.84,-20.19 -40.07,-30.29 -66.59,-30.29 -27.02,0 -49.35,10 -67.2,30.09 -17.74,20.09 -26.62,50.38 -26.62,90.86z"/>
  </g>
 </g>
</svg>
