<?xml version="1.0" encoding="UTF-8"?>
<!DOCTYPE svg PUBLIC "-//W3C//DTD SVG 1.1//EN" "http://www.w3.org/Graphics/SVG/1.1/DTD/svg11.dtd">
<!-- Creator: CorelDRAW 2019 (64-Bit) -->
<svg xmlns="http://www.w3.org/2000/svg" xml:space="preserve" width="157.21mm" height="45.2673mm" version="1.1" style="shape-rendering:geometricPrecision; text-rendering:geometricPrecision; image-rendering:optimizeQuality; fill-rule:evenodd; clip-rule:evenodd"
viewBox="0 0 14906.18 4292.1"
 xmlns:xlink="http://www.w3.org/1999/xlink"
 xmlns:xodm="http://www.corel.com/coreldraw/odm/2003">
 <defs>
  <style type="text/css">
   <![CDATA[
    .fil2 {fill:#BF360C}
    .fil1 {fill:#BF360C;fill-rule:nonzero}
    .fil0 {fill:#F9A825;fill-rule:nonzero}
   ]]>
  </style>
 </defs>
 <g id="Ebene_x0020_1">
  <metadata id="CorelCorpID_0Corel-Layer"/>
  <path class="fil0" d="M14906.18 1357.97l-737.7 1181.03c-61.27,30.21 -154.89,23.21 -239.68,-0.51 20.37,69.79 -5.49,183.66 -61.96,285.47l-297.71 496.83 -365.88 0 479.66 -782.3c74.2,-23.27 155.96,-27.71 245.89,0 -12.01,-101.26 16.56,-216.02 60.14,-277.09l554.32 -903.42 362.92 0z"/>
  <path class="fil1" d="M14168.48 2539l488.48 781.78 -488.48 0 -301.64 -496.83c56.47,-101.8 82.33,-215.67 61.96,-285.47 84.79,23.72 178.41,30.72 239.68,0.51zm-485.57 -0.51l-414.92 -668.48 488.51 0 232.44 391.38c-43.58,61.07 -72.16,175.83 -60.14,277.09 -89.92,-27.71 -171.68,-23.27 -245.89,0z"/>
  <path class="fil0" d="M-0 3315.97l0 -239.27 1002.71 -1255.19c72,-88.44 139.45,-166.37 203.72,-233.81l-1091.59 0 0 -229.73 1400.13 0 0 229.73 -1099.76 1358.18 -117.6 140.4 1250.19 0 0 229.69 -1547.8 0zm2782.53 0l0 -211.01c-110.31,160.89 -259.78,241.11 -448.95,241.11 -83.39,0 -161.45,-15.81 -233.79,-47.88 -72.54,-32.13 -126.41,-72.39 -161.36,-120.78 -35.19,-48.64 -59.71,-108.05 -73.81,-178.2 -9.52,-47.4 -14.58,-122.13 -14.58,-224.24l0 -878.28 240.63 0 0 785.31c0,125.28 4.66,210.22 14.59,253.42 14.61,63.41 47.05,112.5 96.16,148.58 48.8,35.88 108.93,54.23 180.93,54.23 72.04,0 139.51,-18.26 202.4,-55.15 62.84,-36.87 107.76,-87.45 133.97,-150.86 26.14,-63.23 39.22,-155.88 39.22,-276.66l0 -758.87 240.64 0 0 1419.28 -216.03 0zm683.24 0l0 -1958.01 739.25 0c129.91,0 229.28,6.97 298.09,18.71 96.05,16.39 177.01,46.37 242.03,91.13 65.22,44.89 117.63,108.09 157.23,188.69 39.58,80.61 59.23,169.55 59.23,266.63 0,165.9 -53.15,306.6 -159.05,421.59 -105.92,115.05 -297.73,172.75 -574.74,172.75l-502.25 0 0 798.5 -259.79 0zm259.79 -1028.22l505.9 0c167.73,0 286.4,-30.89 356.87,-93.41 70.26,-62.29 105.28,-149.95 105.28,-263.47 0,-81.58 -20.55,-151.81 -61.99,-210.1 -41.42,-58.28 -96.08,-97.57 -163.62,-115.77 -43.58,-11.74 -124.54,-17.3 -241.56,-17.3l-500.89 0 0 700.05zm1442.47 1028.22l0 -1419.28 216.03 0 0 217.42c55.14,-100.73 106.34,-167.14 153.15,-199.19 46.98,-32.16 98.45,-48.29 154.51,-48.29 81.11,0 163.61,25.52 247.48,76.1l-85.7 221.96c-58.35,-32.82 -116.66,-49.21 -175,-49.21 -52.41,0 -99.37,15.95 -140.84,47.4 -41.48,31.46 -71.18,75.21 -88.88,131.25 -26.89,85.17 -40.11,178.76 -40.11,280.33l0 741.52 -240.64 0zm793.47 -709.63c0,-262.06 72.92,-456.24 219.23,-582.48 121.7,-104.82 270.72,-157.23 446.2,-157.23 194.62,0 354.15,63.79 478.09,191.42 123.54,127.16 185.52,303.55 185.52,528.23 0,182.31 -27.36,325.41 -82.05,429.8 -54.7,104.38 -134.44,185.5 -239.27,243.39 -104.38,57.87 -218.79,86.6 -342.29,86.6 -198.72,0 -359.16,-63.36 -481.75,-190.53 -122.61,-127.15 -183.68,-310.36 -183.68,-549.19zm246.12 0.45c0,181.4 39.66,317.21 118.97,407.01 79.75,90.24 179.56,135.36 300.34,135.36 119.41,0 218.78,-45.12 298.53,-135.81 79.3,-90.72 118.97,-228.81 118.97,-414.3 0,-175.02 -40.11,-307.66 -119.89,-397.42 -79.75,-90.25 -179.12,-135.4 -297.61,-135.4 -120.78,0 -220.59,44.68 -300.34,134.48 -79.3,89.76 -118.97,225.15 -118.97,406.08z"/>
  <path class="fil2" d="M9011.1 2853.03l-28.02 333.84 -1254.6 0 0 -326.31c41,-30.95 108.35,-79.48 202.47,-145.56 229.67,-163.17 397.02,-297.43 501.58,-402.85 104.58,-105.86 156.88,-202.48 156.88,-290.77 0,-64.42 -20.91,-117.54 -62.76,-159.38 -41.83,-42.24 -98.31,-63.18 -168.57,-63.18 -164.42,0 -259.37,106.25 -285.73,318.78l-343.88 -77.41c77.82,-368.55 292.83,-552.62 645.91,-552.62 197.88,0 349.73,51.88 455.57,155.64 105.83,103.73 158.54,227.56 158.54,371.48 0,148.5 -55.2,281.52 -166.07,398.23 -110.43,116.72 -314.16,263.55 -610.76,440.09l799.43 0zm151.73 -1495.06l-1594.64 0 0 1966.19 1594.64 0 0 -1966.19z"/>
  <path class="fil0" d="M10855.44 1746.41l-918.16 0 0 438.46 726.88 0 0 367.84 -726.88 0 0 768.06 -476.7 0 0 -1962.81 1394.86 0 0 388.45zm215.32 1574.37l0 -1962.81 429.62 0 0 1962.81 -429.62 0zm2083.96 -656.24l-934.33 0c-0.98,26 -1.45,48.56 -1.45,67.68 0,104 27.45,182.47 82.89,235.41 54.93,52.98 121.13,79.46 198.15,79.46 142.71,0 228.54,-76.49 257.48,-229.52l388.45 28.94c-108.39,335.97 -328.12,503.7 -659.68,503.7 -144.67,0 -267.79,-28.93 -368.82,-86.82 -101.04,-57.88 -184.4,-142.22 -250.12,-253.06 -65.73,-111.35 -98.61,-244.25 -98.61,-399.24 0,-230.53 65.73,-416.41 197.68,-558.14 131.42,-141.74 300.64,-212.38 507.62,-212.38 186.86,0 346.74,65.72 480.14,196.67 133.9,130.97 200.6,340.38 200.6,627.3zm-935.79 -247.19l514.97 0c-13.26,-198.15 -95.13,-297.22 -245.22,-297.22 -160.86,0 -250.63,99.07 -269.74,297.22z"/>
  <rect class="fil2" x="7568.18" y="-0" width="1041.65" height="1041.65"/>
  <rect class="fil2" x="9162.82" y="3564.2" width="257.29" height="257.29"/>
  <rect class="fil2" x="6747.5" y="514.55" width="527.1" height="527.1"/>
  <rect class="fil2" x="7568.18" y="3564.2" width="727.91" height="727.91"/>
  <rect class="fil2" x="8461.7" y="3564.2" width="414.15" height="414.15"/>
 </g>
</svg>
